# xmcd
# 
# Track frame offsets:
#     150
#     15856
#     33785
#     50763
#     71763
#     96345
#     114002
#     135679
#     164996
#     181256
#     197634
#     213286
#     229624
#     265214
# 
# Disc length: 3784
# 
# Revision: 12
# Processed by: cddbd v1.5.2PL0 Copyright (c) Steve Scherf et al.
# Submitted via: fre:ac v1.0.31
# 
DISCID=bd0ec60e
DTITLE=Eric Clapton - Unplugged Disc 1 Deluxe Edition
DYEAR=2013
DGENRE=Rock/Pop
TTITLE0=Signe
TTITLE1=Before You Accuse Me
TTITLE2=Hey Hey
TTITLE3=Tears In Heaven
TTITLE4=Lonely Stranger
TTITLE5=Nobody Knows You When You're Down and Out
TTITLE6=Layla
TTITLE7=Running On Faith
TTITLE8=Walkin' Blues
TTITLE9=Alberta
TTITLE10=San Francisco Bay Blues
TTITLE11=Malted Milk
TTITLE12=Old Love
TTITLE13=Rollin' and Tumblin'
EXTD=Year: 1992   (2013 @ Viacom International Inc.)   2 CD and 1 DVD\n\n\n\n\n\n                                                      http://www.ericclapton.com YEAR: 1992
EXTT0=
EXTT1=
EXTT2=
EXTT3=
EXTT4=
EXTT5=
EXTT6=
EXTT7=
EXTT8=
EXTT9=
EXTT10=
EXTT11=
EXTT12=
EXTT13=
PLAYORDER=
